<svg width="245" height="44" viewBox="0 0 245 44" fill="none" xmlns="http://www.w3.org/2000/svg">
<path d="M8.44 5.88C8.44 7.678 9.89 9.128 11.63 9.128H13.428C15.168 9.128 16.618 10.578 16.618 12.376V29.544C16.618 31.98 16.27 33.894 15.516 35.228C14.82 36.62 13.428 37.316 11.398 37.316C10.122 37.316 9.078 36.91 8.208 36.098C7.86 35.808 7.57 35.402 7.338 34.996C6.642 33.836 5.192 33.314 3.858 33.604L3.336 33.72C1.306 34.242 0.262 36.504 1.248 38.36C1.944 39.694 2.814 40.738 3.916 41.55C5.946 43.058 8.556 43.754 11.688 43.754C13.718 43.754 15.458 43.406 16.966 42.768C18.474 42.13 19.75 41.202 20.736 40.1C21.722 38.998 22.476 37.722 22.998 36.214C23.52 34.764 23.752 33.256 23.752 31.632V5.88C23.752 4.14 22.302 2.69 20.562 2.69H11.63C9.89 2.69 8.44 4.14 8.44 5.88ZM31.1828 31.632C32.2268 34.184 33.6768 36.388 35.5328 38.244C37.4468 40.042 39.6508 41.492 42.2608 42.478C44.8128 43.464 47.6548 43.986 50.7868 43.986C53.9188 43.928 56.7608 43.406 59.3708 42.362C61.9808 41.318 64.1848 39.868 66.0988 38.012C68.0128 36.214 69.4628 34.01 70.5068 31.4C71.5508 28.848 72.0728 26.006 72.0728 22.874C72.0728 19.684 71.5508 16.784 70.5068 14.174C69.4628 11.564 68.0128 9.302 66.0988 7.446C64.1848 5.648 61.9808 4.198 59.3708 3.27C56.7608 2.284 53.9188 1.82 50.7868 1.878C47.6548 1.878 44.8128 2.342 42.2608 3.386C39.6508 4.372 37.4468 5.822 35.5328 7.62C33.6768 9.476 32.2268 11.738 31.1828 14.348C30.1388 16.958 29.6168 19.916 29.6168 23.106C29.6168 26.238 30.1388 29.08 31.1828 31.632ZM38.0268 17.016C38.7228 15.276 39.6508 13.768 40.8688 12.492C42.0868 11.158 43.4788 10.172 45.1608 9.418C46.8428 8.664 48.7568 8.316 50.7868 8.316C52.8748 8.316 54.7888 8.664 56.4708 9.418C58.1528 10.172 59.6028 11.158 60.8208 12.492C62.0388 13.768 62.9668 15.276 63.6628 17.016C64.3008 18.756 64.6488 20.67 64.6488 22.642C64.6488 24.788 64.3008 26.76 63.6628 28.558C62.9668 30.414 62.0388 31.98 60.8208 33.256C59.6028 34.59 58.1528 35.634 56.4708 36.388C54.7888 37.142 52.8748 37.548 50.7868 37.548C48.7568 37.548 46.8428 37.142 45.1608 36.388C43.4788 35.634 42.0868 34.59 40.8688 33.256C39.6508 31.98 38.7228 30.414 38.0268 28.558C37.3888 26.76 37.0408 24.788 37.0408 22.642C37.0408 20.67 37.3888 18.756 38.0268 17.016ZM80.7153 8.374H90.0533H90.9233C93.6493 8.374 95.6213 8.78 96.8393 9.65C98.0573 10.462 98.6953 11.796 98.6953 13.478C98.6953 14.754 98.2893 15.74 97.4773 16.61C96.8393 17.248 96.2013 17.654 95.2733 17.654L80.6573 17.77C79.1493 17.77 77.9313 19.046 77.9313 20.554V39.52C77.9313 41.086 79.1493 42.304 80.7153 42.304H92.3153C94.2293 42.304 96.0853 42.13 97.9413 41.724C99.7393 41.376 101.363 40.738 102.755 39.868C104.205 38.94 105.307 37.78 106.177 36.33C107.047 34.88 107.511 33.082 107.511 30.878C107.511 29.602 107.279 28.384 106.873 27.282C106.409 26.18 105.829 25.194 105.075 24.324C104.321 23.512 103.393 22.816 102.349 22.236C101.247 21.714 100.087 21.366 98.8693 21.192V21.076C100.899 20.438 102.581 19.394 103.857 17.944C105.191 16.436 105.829 14.58 105.829 12.318C105.829 10.52 105.423 8.954 104.727 7.678C104.031 6.402 103.103 5.358 101.943 4.546C100.783 3.734 99.4493 3.154 97.9993 2.806C96.5493 2.4 95.0413 2.226 93.5333 2.226H80.7153C79.1493 2.226 77.9313 3.502 77.9313 5.01V5.59C77.9313 7.098 79.1493 8.374 80.7153 8.374ZM85.0073 27.456C85.0073 25.89 86.2833 24.672 87.8493 24.672H91.9093C94.8093 24.672 96.9553 25.078 98.2893 25.89C99.6813 26.702 100.377 28.21 100.377 30.298C100.377 31.632 100.087 32.676 99.5073 33.43C98.9853 34.242 98.2313 34.822 97.3613 35.228C96.4913 35.634 95.5633 35.924 94.5193 36.04C93.4753 36.156 92.4893 36.214 91.6193 36.214H87.8493C86.2833 36.214 85.0073 34.938 85.0073 33.43V27.456ZM136.822 7.852C138.388 6.17 137.924 3.386 135.836 2.4C135.314 2.168 134.792 1.994 134.212 1.82C132.24 1.124 130.21 0.833997 128.064 0.833997C126.208 0.833997 124.41 1.066 122.67 1.588C120.872 2.052 119.306 2.806 117.914 3.792C116.522 4.778 115.42 6.054 114.55 7.562C113.738 9.07 113.332 10.868 113.332 12.956C113.332 15.334 113.796 17.19 114.724 18.64C115.652 20.032 116.812 21.192 118.204 22.004C119.596 22.874 121.162 23.57 122.786 24.034C124.468 24.556 125.976 25.02 127.426 25.6C128.818 26.122 129.978 26.818 130.906 27.63C131.834 28.384 132.298 29.544 132.298 30.994C132.298 31.922 132.124 32.734 131.718 33.43C131.312 34.126 130.732 34.706 130.036 35.112C129.398 35.576 128.644 35.924 127.774 36.156C126.962 36.388 126.15 36.504 125.28 36.504C123.714 36.504 122.206 36.098 120.814 35.402C120.292 35.112 119.828 34.822 119.364 34.474C118.03 33.43 116.116 33.546 114.898 34.706L114.608 34.996C113.1 36.446 113.216 39.056 115.014 40.216C115.942 40.854 116.928 41.318 117.972 41.724C120.234 42.536 122.67 42.942 125.106 42.942C127.078 42.942 128.934 42.652 130.732 42.13C132.53 41.608 134.038 40.854 135.43 39.752C136.764 38.708 137.808 37.374 138.62 35.808C139.374 34.184 139.78 32.328 139.78 30.124C139.78 27.746 139.316 25.89 138.388 24.44C137.46 22.99 136.242 21.83 134.85 20.96C133.458 20.09 131.95 19.452 130.268 18.93C128.644 18.466 127.078 17.944 125.686 17.422C124.294 16.9 123.134 16.262 122.206 15.566C121.22 14.812 120.756 13.768 120.756 12.434C120.756 11.506 120.988 10.752 121.336 10.114C121.742 9.418 122.206 8.896 122.844 8.49C123.482 8.084 124.178 7.736 124.932 7.562C125.686 7.388 126.498 7.272 127.368 7.272C128.76 7.272 130.094 7.562 131.312 8.026C131.718 8.2 132.008 8.374 132.356 8.548C133.748 9.418 135.488 9.244 136.59 8.084L136.822 7.852ZM157.855 11.506V38.708C157.855 40.506 159.305 41.898 161.103 41.898H161.799C163.539 41.898 164.989 40.506 164.989 38.708V11.506C164.989 9.766 166.439 8.316 168.237 8.316H174.037C175.835 8.316 177.285 6.866 177.285 5.068C177.285 3.27 175.835 1.878 174.037 1.878H148.807C147.009 1.878 145.617 3.27 145.617 5.068C145.617 6.866 147.009 8.316 148.807 8.316H154.665C156.405 8.316 157.855 9.766 157.855 11.506ZM183.17 23.338V39.926C183.17 41.724 184.562 43.174 186.36 43.174H204.688C206.486 43.174 207.936 41.724 207.936 39.926C207.936 38.128 206.486 36.678 204.688 36.678H193.494C191.696 36.678 190.246 35.286 190.246 33.488V29.718C190.246 27.978 191.696 26.528 193.494 26.528H204.688C206.486 26.528 207.936 25.078 207.936 23.28C207.936 21.54 206.486 20.09 204.688 20.09L186.36 20.148C184.562 20.148 183.17 21.598 183.17 23.338ZM186.36 9.534H204.746C206.544 9.534 207.994 8.084 207.994 6.286C207.994 4.546 206.544 3.096 204.746 3.096H186.36C184.562 3.096 183.17 4.546 183.17 6.286C183.17 8.084 184.562 9.534 186.36 9.534ZM243.624 39.462L236.084 26.586C235.562 25.658 236.026 24.498 237.012 24.15C237.766 23.86 238.462 23.512 239.1 23.164C240.608 22.294 241.768 21.134 242.638 19.568C243.508 18.002 243.914 15.972 243.914 13.478C243.914 11.216 243.508 9.36 242.696 7.852C241.884 6.402 240.84 5.184 239.448 4.314C238.114 3.444 236.49 2.806 234.75 2.4C232.952 2.052 231.096 1.878 229.124 1.878H215.494C214.16 1.878 213.348 3.27 214.044 4.43L221.294 16.668C221.932 17.77 221.12 19.22 219.786 19.22L217.408 19.162C216.422 19.162 215.668 19.916 215.668 20.844V40.216C215.668 41.144 216.422 41.898 217.35 41.898H221.12C222.048 41.898 222.802 41.144 222.802 40.216V27.05C222.802 26.122 223.556 25.368 224.484 25.368H225.586C226.166 25.368 226.746 25.658 227.036 26.18L235.678 41.144C235.968 41.666 236.548 42.014 237.128 42.014H242.174C243.45 42.014 244.262 40.564 243.624 39.462ZM226.456 10.52C225.76 9.418 226.572 7.968 227.906 7.968C228.834 7.968 229.82 8.026 230.864 8.142C231.85 8.258 232.778 8.49 233.648 8.896C234.46 9.302 235.156 9.882 235.678 10.578C236.2 11.332 236.432 12.318 236.432 13.594C236.432 14.928 236.142 15.972 235.562 16.726C234.982 17.48 234.228 18.06 233.3 18.408C233.184 18.466 233.068 18.524 232.894 18.582C232.14 18.872 231.27 18.582 230.864 17.886L226.456 10.52Z" fill="#1F2937"/>
</svg>
