<svg width="242" height="72" viewBox="0 0 242 72" fill="none" xmlns="http://www.w3.org/2000/svg">
<path d="M30.5918 66.7266C29.8757 68.2891 28.7852 69.5586 27.3203 70.5352C25.8555 71.5117 24.2116 72 22.3887 72H17.7988H13.2578H8.61914C6.82878 72 5.20117 71.5117 3.73633 70.5352C2.27148 69.5586 1.18099 68.2891 0.464844 66.7266V35.7207H13.2578V58.377H17.7988V0.466797H30.5918V66.7266ZM63.6973 66.7266C62.9486 68.2891 61.8418 69.5586 60.377 70.5352C58.9447 71.5117 57.3171 72 55.4941 72H50.9043H46.3633H41.7246C39.9017 72 38.2578 71.5117 36.793 70.5352C35.3607 69.5586 34.2865 68.2891 33.5703 66.7266V4.76367C34.4492 2.8431 35.8327 1.41081 37.7207 0.466797H59.5469C61.4023 1.41081 62.7858 2.8431 63.6973 4.76367V66.7266ZM50.9043 58.377V13.0156H46.3633V58.377H50.9043ZM96.8027 66.7266C96.054 68.2891 94.9473 69.5586 93.4824 70.5352C92.0501 71.5117 90.4225 72 88.5996 72H84.0098H79.4688H66.6758V0.466797H92.7988C94.5892 1.44336 95.9238 2.85938 96.8027 4.71484V30.4473C96.2493 31.5866 95.5007 32.5794 94.5566 33.4258C95.5007 34.2721 96.2493 35.2812 96.8027 36.4531V66.7266ZM84.0098 58.377V40.2617H79.4688V58.377H84.0098ZM84.0098 26.6387V13.0156H79.4688V26.6387H84.0098ZM129.957 66.7266C129.208 68.2891 128.102 69.5586 126.637 70.5352C125.204 71.5117 123.577 72 121.754 72H117.115H112.623H107.984C106.161 72 104.518 71.5117 103.053 70.5352C101.62 69.5586 100.53 68.2891 99.7812 66.7266V44.7539H112.623V58.377H117.115V40.2617H112.623H107.984C106.161 40.2617 104.518 39.7734 103.053 38.7969C101.62 37.8203 100.53 36.5345 99.7812 34.9395V4.71484C100.66 2.85938 101.995 1.44336 103.785 0.466797H125.953C127.743 1.44336 129.078 2.85938 129.957 4.71484V22.0977H117.115V13.0156H112.623V26.6387H117.115H121.754C123.577 26.6387 125.204 27.127 126.637 28.1035C128.102 29.0475 129.208 30.3171 129.957 31.9121V66.7266ZM163.014 13.0156H154.713V72H141.139V13.0156H132.887V0.466797H163.014V13.0156ZM165.992 0.466797H179.615H193.238V13.0156H179.615V26.6387H188.697V40.2617H179.615V58.377H193.238V72H179.615H165.992V0.466797ZM226.295 30.4473C226.002 31.0983 225.432 31.8633 224.586 32.7422C223.74 33.5885 222.665 34.1419 221.363 34.4023L226.295 61.4531V72H215.406L209.693 40.2617H208.961V72H196.168V0.466797H222.34C224.13 1.44336 225.449 2.85938 226.295 4.71484V30.4473ZM208.961 13.0156V26.6387H213.502V13.0156H208.961ZM241.578 72V58.4746H229.273V72H241.578Z" fill="black"/>
</svg>
