<svg width="248" height="72" viewBox="0 0 248 72" fill="none" xmlns="http://www.w3.org/2000/svg">
<path d="M98.0714 20.7273H105.523V42.3494C105.513 44.3752 105.029 46.1465 104.072 47.6634C103.116 49.17 101.792 50.3407 100.102 51.1754C98.4226 52.0102 96.4782 52.4276 94.2692 52.4276C92.3146 52.4276 90.5382 52.0865 88.94 51.4045C87.3519 50.7224 86.0845 49.6637 85.1378 48.2283C84.2012 46.793 83.738 44.9555 83.7482 42.7159H91.2763C91.3068 43.5201 91.4595 44.2073 91.7344 44.7773C92.0194 45.3372 92.4113 45.7597 92.9102 46.0447C93.409 46.3298 94.0045 46.4723 94.6967 46.4723C95.4195 46.4723 96.0303 46.3196 96.5291 46.0142C97.0279 45.6986 97.4046 45.2354 97.6591 44.6246C97.9238 44.0138 98.0612 43.2554 98.0714 42.3494V20.7273ZM121.217 52.4428C118.753 52.4428 116.636 51.9389 114.864 50.9311C113.103 49.9131 111.744 48.4981 110.787 46.6861C109.841 44.8639 109.367 42.7515 109.367 40.3491C109.367 37.9364 109.841 35.8241 110.787 34.0121C111.744 32.1899 113.103 30.7749 114.864 29.767C116.636 28.7491 118.753 28.2401 121.217 28.2401C123.68 28.2401 125.793 28.7491 127.554 29.767C129.325 30.7749 130.684 32.1899 131.631 34.0121C132.588 35.8241 133.066 37.9364 133.066 40.3491C133.066 42.7515 132.588 44.8639 131.631 46.6861C130.684 48.4981 129.325 49.9131 127.554 50.9311C125.793 51.9389 123.68 52.4428 121.217 52.4428ZM121.263 46.8082C122.158 46.8082 122.917 46.5334 123.538 45.9837C124.159 45.4339 124.632 44.6705 124.958 43.6932C125.294 42.7159 125.462 41.5859 125.462 40.3033C125.462 39.0002 125.294 37.8601 124.958 36.8828C124.632 35.9055 124.159 35.142 123.538 34.5923C122.917 34.0426 122.158 33.7678 121.263 33.7678C120.336 33.7678 119.552 34.0426 118.911 34.5923C118.28 35.142 117.796 35.9055 117.46 36.8828C117.135 37.8601 116.972 39.0002 116.972 40.3033C116.972 41.5859 117.135 42.7159 117.46 43.6932C117.796 44.6705 118.28 45.4339 118.911 45.9837C119.552 46.5334 120.336 46.8082 121.263 46.8082ZM136.891 52V20.7273H144.358V32.5614H144.511C144.816 31.8488 145.249 31.1617 145.809 30.5C146.379 29.8383 147.102 29.2988 147.977 28.8814C148.863 28.4538 149.922 28.2401 151.153 28.2401C152.782 28.2401 154.304 28.6676 155.719 29.5227C157.144 30.3778 158.295 31.6961 159.17 33.4776C160.045 35.2591 160.483 37.5292 160.483 40.288C160.483 42.945 160.061 45.1693 159.216 46.9609C158.381 48.7526 157.251 50.0964 155.826 50.9922C154.411 51.888 152.838 52.3359 151.108 52.3359C149.927 52.3359 148.904 52.1425 148.038 51.7557C147.173 51.3688 146.445 50.8598 145.855 50.2287C145.274 49.5975 144.826 48.9206 144.511 48.1978H144.282V52H136.891ZM144.206 40.2727C144.206 41.535 144.373 42.6345 144.709 43.571C145.056 44.5076 145.549 45.2354 146.191 45.7546C146.842 46.2636 147.621 46.5181 148.527 46.5181C149.443 46.5181 150.222 46.2636 150.863 45.7546C151.505 45.2354 151.988 44.5076 152.314 43.571C152.65 42.6345 152.818 41.535 152.818 40.2727C152.818 39.0104 152.65 37.9161 152.314 36.9897C151.988 36.0633 151.505 35.3456 150.863 34.8366C150.232 34.3277 149.453 34.0732 148.527 34.0732C147.611 34.0732 146.832 34.3226 146.191 34.8214C145.549 35.3202 145.056 36.0328 144.709 36.9592C144.373 37.8855 144.206 38.9901 144.206 40.2727ZM184.873 35.707L178.017 35.8903C177.946 35.4016 177.752 34.969 177.437 34.5923C177.121 34.2055 176.709 33.9052 176.2 33.6914C175.701 33.4674 175.121 33.3555 174.459 33.3555C173.594 33.3555 172.856 33.5285 172.245 33.8746C171.644 34.2208 171.349 34.689 171.359 35.2795C171.349 35.7376 171.532 36.1346 171.909 36.4705C172.296 36.8065 172.983 37.0762 173.97 37.2798L178.49 38.1349C180.832 38.5829 182.572 39.326 183.713 40.3643C184.863 41.4027 185.443 42.777 185.453 44.4872C185.443 46.0956 184.965 47.4954 184.018 48.6864C183.081 49.8775 181.799 50.8039 180.17 51.4656C178.541 52.1171 176.678 52.4428 174.581 52.4428C171.232 52.4428 168.59 51.7557 166.656 50.3814C164.732 48.9969 163.633 47.1442 163.358 44.8232L170.733 44.6399C170.896 45.495 171.318 46.1465 172.001 46.5945C172.683 47.0424 173.553 47.2663 174.612 47.2663C175.569 47.2663 176.347 47.0882 176.948 46.7319C177.549 46.3756 177.854 45.9022 177.864 45.3118C177.854 44.7824 177.62 44.36 177.162 44.0444C176.704 43.7186 175.986 43.4641 175.009 43.2809L170.916 42.5021C168.565 42.0746 166.814 41.2856 165.664 40.1353C164.513 38.9748 163.943 37.4987 163.953 35.707C163.943 34.1393 164.36 32.8007 165.205 31.6911C166.05 30.5713 167.252 29.7161 168.809 29.1257C170.367 28.5353 172.204 28.2401 174.322 28.2401C177.498 28.2401 180.002 28.9068 181.834 30.2404C183.667 31.5638 184.68 33.386 184.873 35.707ZM202.369 28.5455V34.0426H187.572V28.5455H202.369ZM190.672 22.9261H198.139V44.6246C198.139 45.0827 198.21 45.4543 198.353 45.7393C198.505 46.0142 198.724 46.2127 199.009 46.3349C199.294 46.4469 199.635 46.5028 200.032 46.5028C200.317 46.5028 200.618 46.4774 200.933 46.4265C201.259 46.3654 201.503 46.3145 201.666 46.2738L202.796 51.6641C202.44 51.7659 201.936 51.8931 201.284 52.0458C200.643 52.1985 199.874 52.2952 198.979 52.3359C197.228 52.4174 195.726 52.2138 194.474 51.7251C193.232 51.2263 192.28 50.4527 191.619 49.4041C190.967 48.3556 190.651 47.0373 190.672 45.4492V22.9261ZM216.89 52.4428C214.437 52.4428 212.319 51.9593 210.538 50.9922C208.767 50.0149 207.402 48.6254 206.446 46.8235C205.499 45.0115 205.025 42.8584 205.025 40.3643C205.025 37.9415 205.504 35.8241 206.461 34.0121C207.418 32.1899 208.767 30.7749 210.507 29.767C212.248 28.7491 214.299 28.2401 216.661 28.2401C218.331 28.2401 219.858 28.4996 221.242 29.0188C222.627 29.538 223.823 30.3066 224.831 31.3246C225.838 32.3426 226.622 33.5998 227.182 35.0962C227.742 36.5825 228.022 38.2876 228.022 40.2116V42.0746H207.637V37.7379H221.074C221.064 36.9439 220.876 36.2364 220.509 35.6154C220.143 34.9944 219.639 34.5109 218.997 34.1648C218.366 33.8085 217.638 33.6303 216.814 33.6303C215.979 33.6303 215.231 33.8187 214.569 34.1953C213.907 34.5618 213.383 35.0657 212.996 35.707C212.61 36.3382 212.406 37.0559 212.386 37.8601V42.2731C212.386 43.23 212.574 44.0698 212.951 44.7926C213.327 45.5052 213.862 46.06 214.554 46.457C215.246 46.854 216.071 47.0526 217.028 47.0526C217.689 47.0526 218.29 46.9609 218.829 46.7777C219.369 46.5945 219.832 46.3247 220.219 45.9684C220.606 45.6121 220.896 45.1744 221.089 44.6552L227.946 44.8537C227.661 46.3909 227.034 47.7295 226.067 48.8697C225.11 49.9996 223.853 50.8802 222.296 51.5114C220.738 52.1323 218.936 52.4428 216.89 52.4428ZM231.836 52V28.5455H239.089V32.821H239.333C239.761 31.2737 240.458 30.1233 241.425 29.37C242.392 28.6065 243.517 28.2248 244.8 28.2248C245.146 28.2248 245.502 28.2502 245.869 28.3011C246.235 28.3419 246.576 28.408 246.892 28.4996V34.9893C246.535 34.8672 246.067 34.7705 245.487 34.6992C244.917 34.628 244.408 34.5923 243.96 34.5923C243.074 34.5923 242.275 34.7908 241.562 35.1879C240.86 35.5747 240.305 36.1193 239.898 36.8217C239.501 37.514 239.303 38.3284 239.303 39.2649V52H231.836Z" fill="#1F2937"/>
<path fill-rule="evenodd" clip-rule="evenodd" d="M17.07 11.1111C17.07 8.16425 18.0977 5.3381 19.927 3.25437C21.7563 1.17063 24.2373 0 26.8243 0H36.5786C39.1656 0 41.6467 1.17063 43.476 3.25437C45.3053 5.3381 46.333 8.16425 46.333 11.1111V11.8704C49.3665 12.1852 52.3709 12.6 55.3524 13.1074C60.08 13.9148 63.403 18.6 63.403 23.9111V35.1444C63.403 39.6296 61.0164 43.8555 57.1082 45.337C48.914 48.4352 40.3353 50.0097 31.7015 50C22.8251 50 14.2836 48.3629 6.29478 45.337C2.38655 43.8555 0 39.6296 0 35.1444V23.9111C0 18.6 3.32297 13.9111 8.05055 13.1074C11.0461 12.5971 14.0538 12.1846 17.07 11.8704V11.1111ZM41.4558 11.1111V11.4444C34.9589 10.995 28.4441 10.995 21.9472 11.4444V11.1111C21.9472 9.63768 22.461 8.2246 23.3757 7.18273C24.2903 6.14086 25.5308 5.55555 26.8243 5.55555H36.5786C37.8721 5.55555 39.1127 6.14086 40.0273 7.18273C40.942 8.2246 41.4558 9.63768 41.4558 11.1111ZM31.7015 41.6666C32.3482 41.6666 32.9685 41.374 33.4258 40.853C33.8831 40.3321 34.1401 39.6256 34.1401 38.8889C34.1401 38.1521 33.8831 37.4456 33.4258 36.9247C32.9685 36.4037 32.3482 36.1111 31.7015 36.1111C31.0547 36.1111 30.4345 36.4037 29.9772 36.9247C29.5198 37.4456 29.2629 38.1521 29.2629 38.8889C29.2629 39.6256 29.5198 40.3321 29.9772 40.853C30.4345 41.374 31.0547 41.6666 31.7015 41.6666Z" fill="#6366F1"/>
<path d="M1.7612 59.4634V49C2.50794 49.4665 3.29015 49.8548 4.09826 50.1601C12.8587 53.4809 22.0305 55.1691 31.2612 55.1598C40.7405 55.1598 49.879 53.4084 58.4241 50.1638C59.2501 49.8495 60.0303 49.4566 60.7612 49V59.4634C60.7612 64.8972 57.3294 69.6723 52.4914 70.402C45.5425 71.4574 38.4559 72 31.2612 72C24.1614 72.0016 17.0692 71.4678 10.031 70.402C5.19303 69.6723 1.7612 64.8972 1.7612 59.4634Z" fill="#6366F1"/>
</svg>
