<svg width="327" height="100" viewBox="0 0 327 100" fill="none" xmlns="http://www.w3.org/2000/svg">
<path d="M113.592 82.7266C112.876 84.2891 111.785 85.5586 110.32 86.5352C108.855 87.5117 107.212 88 105.389 88H100.799H96.2578H91.6191C89.8288 88 88.2012 87.5117 86.7363 86.5352C85.2715 85.5586 84.181 84.2891 83.4648 82.7266V51.7207H96.2578V74.377H100.799V16.4668H113.592V82.7266ZM146.697 82.7266C145.949 84.2891 144.842 85.5586 143.377 86.5352C141.945 87.5117 140.317 88 138.494 88H133.904H129.363H124.725C122.902 88 121.258 87.5117 119.793 86.5352C118.361 85.5586 117.286 84.2891 116.57 82.7266V20.7637C117.449 18.8431 118.833 17.4108 120.721 16.4668H142.547C144.402 17.4108 145.786 18.8431 146.697 20.7637V82.7266ZM133.904 74.377V29.0156H129.363V74.377H133.904ZM179.803 82.7266C179.054 84.2891 177.947 85.5586 176.482 86.5352C175.05 87.5117 173.423 88 171.6 88H167.01H162.469H149.676V16.4668H175.799C177.589 17.4434 178.924 18.8594 179.803 20.7148V46.4473C179.249 47.5866 178.501 48.5794 177.557 49.4258C178.501 50.2721 179.249 51.2812 179.803 52.4531V82.7266ZM167.01 74.377V56.2617H162.469V74.377H167.01ZM167.01 42.6387V29.0156H162.469V42.6387H167.01ZM212.957 82.7266C212.208 84.2891 211.102 85.5586 209.637 86.5352C208.204 87.5117 206.577 88 204.754 88H200.115H195.623H190.984C189.161 88 187.518 87.5117 186.053 86.5352C184.62 85.5586 183.53 84.2891 182.781 82.7266V60.7539H195.623V74.377H200.115V56.2617H195.623H190.984C189.161 56.2617 187.518 55.7734 186.053 54.7969C184.62 53.8203 183.53 52.5345 182.781 50.9395V20.7148C183.66 18.8594 184.995 17.4434 186.785 16.4668H208.953C210.743 17.4434 212.078 18.8594 212.957 20.7148V38.0977H200.115V29.0156H195.623V42.6387H200.115H204.754C206.577 42.6387 208.204 43.127 209.637 44.1035C211.102 45.0475 212.208 46.3171 212.957 47.9121V82.7266ZM246.014 29.0156H237.713V88H224.139V29.0156H215.887V16.4668H246.014V29.0156ZM248.992 16.4668H262.615H276.238V29.0156H262.615V42.6387H271.697V56.2617H262.615V74.377H276.238V88H262.615H248.992V16.4668ZM309.295 46.4473C309.002 47.0983 308.432 47.8633 307.586 48.7422C306.74 49.5885 305.665 50.1419 304.363 50.4023L309.295 77.4531V88H298.406L292.693 56.2617H291.961V88H279.168V16.4668H305.34C307.13 17.4434 308.449 18.8594 309.295 20.7148V46.4473ZM291.961 29.0156V42.6387H296.502V29.0156H291.961ZM324.578 88V74.4746H312.273V88H324.578Z" fill="black"/>
<path fill-rule="evenodd" clip-rule="evenodd" d="M19.3846 27.1111C19.3846 24.1643 20.5516 21.3381 22.629 19.2544C24.7063 17.1706 27.5238 16 30.4615 16H41.5385C44.4762 16 47.2937 17.1706 49.371 19.2544C51.4484 21.3381 52.6154 24.1643 52.6154 27.1111V27.8704C56.0603 28.1852 59.472 28.6 62.8578 29.1074C68.2265 29.9148 72 34.6 72 39.9111V51.1444C72 55.6296 69.2898 59.8555 64.8517 61.337C55.5465 64.4352 45.8045 66.0097 36 66C25.92 66 16.2203 64.3629 7.14831 61.337C2.71015 59.8555 0 55.6296 0 51.1444V39.9111C0 34.6 3.77354 29.9111 9.14215 29.1074C12.5438 28.5971 15.9594 28.1846 19.3846 27.8704V27.1111ZM47.0769 27.1111V27.4444C39.6991 26.995 32.3009 26.995 24.9231 27.4444V27.1111C24.9231 25.6377 25.5066 24.2246 26.5453 23.1827C27.5839 22.1409 28.9926 21.5556 30.4615 21.5556H41.5385C43.0074 21.5556 44.4161 22.1409 45.4547 23.1827C46.4934 24.2246 47.0769 25.6377 47.0769 27.1111ZM36 57.6666C36.7344 57.6666 37.4388 57.374 37.9581 56.853C38.4775 56.3321 38.7692 55.6256 38.7692 54.8889C38.7692 54.1521 38.4775 53.4456 37.9581 52.9247C37.4388 52.4037 36.7344 52.1111 36 52.1111C35.2656 52.1111 34.5612 52.4037 34.0419 52.9247C33.5225 53.4456 33.2308 54.1521 33.2308 54.8889C33.2308 55.6256 33.5225 56.3321 34.0419 56.853C34.5612 57.374 35.2656 57.6666 36 57.6666Z" fill="#6366F1"/>
<path d="M2 75.4634V65C2.84799 65.4665 3.73627 65.8548 4.65394 66.1601C14.6023 69.4809 25.0177 71.1691 35.5 71.1598C46.2647 71.1598 56.6422 69.4084 66.3461 66.1638C67.2841 65.8495 68.1699 65.4566 69 65V75.4634C69 80.8972 65.1028 85.6723 59.6088 86.402C51.7177 87.4574 43.6703 88 35.5 88C27.4375 88.0016 19.3837 87.4678 11.3912 86.402C5.89717 85.6723 2 80.8972 2 75.4634Z" fill="#6366F1"/>
</svg>
